<svg width="20" height="20" viewBox="0 0 20 20" xmlns="http://www.w3.org/2000/svg"><path fill="#a7aaad" d="M1.15,1.66v16.16h17.21V1.66H1.15z M8.25,3.84l0.63-0.63L10,4.32l1.11-1.11l0.63,0.63l-1.11,1.11l1.11,1.11L11.11,6.7
	L10,5.59L8.89,6.7L8.25,6.07l1.11-1.11L8.25,3.84z M6.5,15.97L5.86,16.6l-1.11-1.11L3.64,16.6L3,15.97l1.11-1.11L3,13.74l0.63-0.63
	l1.11,1.11l1.11-1.11l0.63,0.63l-1.11,1.11L6.5,15.97z M4.23,11.65L2.41,9.83L3.04,9.2l1.19,1.19l2.23-2.23l0.63,0.63L4.23,11.65z
	 M4.23,6.7L2.41,4.88l0.63-0.63l1.19,1.19l2.23-2.23l0.63,0.63L4.23,6.7z M11.75,15.97l-0.63,0.63L10,15.49L8.89,16.6l-0.63-0.63
	l1.11-1.11l-1.11-1.11l0.63-0.63L10,14.22l1.11-1.11l0.63,0.63l-1.11,1.11L11.75,15.97z M9.48,11.65L7.66,9.83L8.29,9.2l1.19,1.19
	l2.23-2.23l0.63,0.63L9.48,11.65z M14.73,16.54l-1.82-1.82l0.63-0.63l1.19,1.19l2.23-2.23l0.63,0.63L14.73,16.54z M13.5,8.76
	l0.63-0.63l1.11,1.11l1.11-1.11L17,8.76l-1.11,1.11L17,10.99l-0.63,0.63l-1.11-1.11l-1.11,1.11l-0.63-0.63l1.11-1.11L13.5,8.76z
	 M14.73,6.7l-1.82-1.82l0.63-0.63l1.19,1.19l2.23-2.23l0.63,0.63L14.73,6.7z"/>
</svg>
